<svg xmlns="http://www.w3.org/2000/svg" width="1475.188" height="511.813" viewBox="0 0 1475.188 511.813">
  <g id="Group_1" data-name="Group 1" transform="translate(-244 -228)">
    <g id="tv" transform="translate(243.5 227.813)">
      <path id="Path_1" data-name="Path 1" d="M293.789,88.543H190.7a17.664,17.664,0,0,0-17.664,17.664v35.227H311.453V106.207A17.664,17.664,0,0,0,293.789,88.543Zm0,0" fill="#d1c0c7"/>
      <path id="Path_2" data-name="Path 2" d="M293.789,88.543H258.461a17.666,17.666,0,0,1,17.664,17.662v35.229h35.328V106.207A17.664,17.664,0,0,0,293.789,88.543Zm0,0" fill="#beadb5"/>
      <path id="Path_3" data-name="Path 3" d="M83.48,504.5H65.816a8.831,8.831,0,0,1-8.832-8.833v-48.5H92.313v48.508A8.831,8.831,0,0,1,83.48,504.5Zm0,0" fill="#84606f"/>
      <path id="Path_4" data-name="Path 4" d="M77.43,447.164v48.508A8.833,8.833,0,0,1,68.6,504.5H83.48a8.831,8.831,0,0,0,8.832-8.833v-48.5Zm0,0" fill="#74505d"/>
      <path id="Path_5" data-name="Path 5" d="M410.16,504.5H392.492a8.833,8.833,0,0,1-8.832-8.831v-48.5h35.332v48.508a8.833,8.833,0,0,1-8.832,8.828Zm0,0" fill="#84606f"/>
      <path id="Path_6" data-name="Path 6" d="M404.105,447.164v48.508a8.831,8.831,0,0,1-8.833,8.832H410.16a8.833,8.833,0,0,0,8.832-8.831V447.164Zm0,0" fill="#74505d"/>
      <path id="Path_7" data-name="Path 7" d="M439.637,460.719H36.336A28.343,28.343,0,0,1,7.992,432.374V153.43a28.346,28.346,0,0,1,28.342-28.344h403.3a28.346,28.346,0,0,1,28.344,28.342V432.375a28.346,28.346,0,0,1-28.341,28.344Zm0,0" fill="#ffb72c"/>
      <path id="Path_8" data-name="Path 8" d="M439.637,125.086H400.809a28.346,28.346,0,0,1,28.344,28.346V432.375a28.346,28.346,0,0,1-28.346,28.348h38.83a28.346,28.346,0,0,0,28.344-28.346V153.43a28.345,28.345,0,0,0-28.342-28.344Zm0,0" fill="#fea900"/>
      <path id="Path_9" data-name="Path 9" d="M340.164,424.293H49.926a9.449,9.449,0,0,1-9.449-9.449V170.961a9.446,9.446,0,0,1,9.448-9.445H340.164a9.446,9.446,0,0,1,9.449,9.445V414.844A9.449,9.449,0,0,1,340.164,424.293Zm0,0" fill="#74505d"/>
      <path id="Path_10" data-name="Path 10" d="M340.164,161.516H314.285V424.293h25.879a9.449,9.449,0,0,0,9.449-9.449V170.961a9.446,9.446,0,0,0-9.448-9.445Zm0,0" fill="#673c4e"/>
      <path id="Path_11" data-name="Path 11" d="M301.789,391.129a1137.716,1137.716,0,0,1-213.488,0,17.662,17.662,0,0,1-15.883-15.5,698.929,698.929,0,0,1,0-165.453A17.658,17.658,0,0,1,88.3,194.68a1137.079,1137.079,0,0,1,213.488,0,17.658,17.658,0,0,1,15.883,15.5,698.933,698.933,0,0,1,0,165.453A17.662,17.662,0,0,1,301.789,391.129Zm0,0" fill="#f0e9ed"/>
      <path id="Path_12" data-name="Path 12" d="M317.672,210.176a17.658,17.658,0,0,0-15.883-15.5q-11.3-1.066-22.621-1.891a20.568,20.568,0,0,1,3.176,9.008,847.66,847.66,0,0,1,0,182.211,20.568,20.568,0,0,1-3.176,9.008q11.314-.838,22.621-1.887a17.662,17.662,0,0,0,15.883-15.5,698.958,698.958,0,0,0,0-165.449Zm0,0" fill="#ded4d8"/>
      <path id="Path_13" data-name="Path 13" d="M427.3,290.523H391.969a8.831,8.831,0,0,1-8.832-8.833V172.859a8.831,8.831,0,0,1,8.833-8.832H427.3a8.831,8.831,0,0,1,8.832,8.833V281.691a8.831,8.831,0,0,1-8.833,8.832Zm0,0" fill="#74505d"/>
      <path id="Path_14" data-name="Path 14" d="M427.3,164.027H414.051v126.5H427.3a8.831,8.831,0,0,0,8.832-8.833V172.859a8.828,8.828,0,0,0-8.832-8.832Zm0,0" fill="#673c4e"/>
      <path id="Path_15" data-name="Path 15" d="M431.715,335.48a22.08,22.08,0,1,1-22.081-22.08,22.08,22.08,0,0,1,22.081,22.08Zm0,0" fill="#efe9ed"/>
      <path id="Path_16" data-name="Path 16" d="M409.633,313.4a21.985,21.985,0,0,0-8.832,1.844,22.078,22.078,0,0,1,0,40.473,22.08,22.08,0,1,0,8.832-42.316Zm0,0" fill="#e1d3da"/>
      <path id="Path_17" data-name="Path 17" d="M431.715,399.7a22.08,22.08,0,1,1-22.081-22.082A22.08,22.08,0,0,1,431.715,399.7Zm0,0" fill="#efe9ed"/>
      <path id="Path_18" data-name="Path 18" d="M409.633,377.617a21.984,21.984,0,0,0-8.832,1.844,22.081,22.081,0,0,1,0,40.477,22.082,22.082,0,1,0,8.832-42.32Zm0,0" fill="#e1d3da"/>
      <path id="Path_19" data-name="Path 19" d="M439.637,117.594H318.949V106.207a25.186,25.186,0,0,0-25.16-25.156h-7l67.5-67.5a7.5,7.5,0,1,0-10.6-10.6l-78.1,78.105h-46.68L140.051,2.2a7.5,7.5,0,0,0-10.6,10.6l68.258,68.258h-7a25.186,25.186,0,0,0-25.16,25.156V117.6H36.336A35.877,35.877,0,0,0,.5,153.43V432.375a35.877,35.877,0,0,0,35.836,35.836H49.488v27.461A16.346,16.346,0,0,0,65.816,512H83.48A16.345,16.345,0,0,0,99.8,495.672V468.211H312.434a7.492,7.492,0,1,0,0-14.984H36.336a20.874,20.874,0,0,1-20.848-20.852V153.43a20.874,20.874,0,0,1,20.848-20.852h403.3a20.877,20.877,0,0,1,20.852,20.852V432.375a20.877,20.877,0,0,1-20.852,20.852h-92.23a7.494,7.494,0,1,0,0,14.988h28.762v27.457A16.345,16.345,0,0,0,392.492,512h17.664a16.346,16.346,0,0,0,16.328-16.328V468.215h13.152a35.88,35.88,0,0,0,35.836-35.84V153.43a35.874,35.874,0,0,0-35.835-35.836ZM84.82,495.672a1.34,1.34,0,0,1-1.34,1.34H65.816a1.337,1.337,0,0,1-1.34-1.34V468.215h20.34v27.457Zm95.711-389.465A10.182,10.182,0,0,1,190.7,96.039H293.789a10.182,10.182,0,0,1,10.172,10.168v11.387H180.531ZM411.5,495.672a1.337,1.337,0,0,1-1.34,1.34H392.492a1.34,1.34,0,0,1-1.34-1.34V468.215H411.5Zm0,0"/>
      <path id="Path_20" data-name="Path 20" d="M40.477,237.266a7.494,7.494,0,0,0-7.492,7.492V414.844a16.958,16.958,0,0,0,16.941,16.941H340.164A16.958,16.958,0,0,0,357.1,414.844V170.961a16.96,16.96,0,0,0-16.941-16.941H49.926a16.96,16.96,0,0,0-16.941,16.941v39.633a7.494,7.494,0,1,0,14.988,0V170.961a1.954,1.954,0,0,1,1.953-1.953H340.164a1.954,1.954,0,0,1,1.953,1.953V414.844a1.956,1.956,0,0,1-1.953,1.953H49.926a1.956,1.956,0,0,1-1.953-1.953V244.758A7.494,7.494,0,0,0,40.477,237.266Zm0,0"/>
      <path id="Path_21" data-name="Path 21" d="M87.6,398.59c35.648,3.359,71.547,5.039,107.445,5.039s71.8-1.68,107.449-5.039a25.3,25.3,0,0,0,22.621-22.07,707.274,707.274,0,0,0,0-167.23,25.3,25.3,0,0,0-22.621-22.07,1147.388,1147.388,0,0,0-214.895,0,25.3,25.3,0,0,0-22.621,22.07,707.276,707.276,0,0,0,0,167.23A25.3,25.3,0,0,0,87.6,398.59ZM79.859,211.063A10.219,10.219,0,0,1,89,202.141c35.188-3.32,70.605-4.977,106.039-4.977s70.867,1.66,106.043,4.977a10.226,10.226,0,0,1,9.145,8.922,692.316,692.316,0,0,1,0,163.684,10.223,10.223,0,0,1-9.145,8.922,1132.679,1132.679,0,0,1-212.082,0,10.227,10.227,0,0,1-9.148-8.922,692.525,692.525,0,0,1,.007-163.684Zm0,0"/>
      <path id="Path_22" data-name="Path 22" d="M443.625,172.859A16.345,16.345,0,0,0,427.3,156.531H391.969a16.345,16.345,0,0,0-16.324,16.328V281.691a16.344,16.344,0,0,0,16.324,16.324H427.3a16.344,16.344,0,0,0,16.324-16.324ZM428.637,281.691a1.339,1.339,0,0,1-1.34,1.336H391.969a1.339,1.339,0,0,1-1.34-1.336V172.859a1.342,1.342,0,0,1,1.34-1.34H427.3a1.342,1.342,0,0,1,1.34,1.34Zm0,0"/>
      <path id="Path_23" data-name="Path 23" d="M409.633,305.9a29.576,29.576,0,1,0,29.574,29.575A29.576,29.576,0,0,0,409.633,305.9Zm0,44.164a14.572,14.572,0,0,1-7.492-27.078V335.48a7.494,7.494,0,0,0,14.988,0V322.988a14.572,14.572,0,0,1-7.5,27.078Zm0,0"/>
      <path id="Path_24" data-name="Path 24" d="M409.633,370.125A29.574,29.574,0,1,0,439.207,399.7a29.574,29.574,0,0,0-29.574-29.574Zm0,44.16a14.586,14.586,0,1,1,12.492-22.078H409.633a7.494,7.494,0,0,0,0,14.988h12.492a14.584,14.584,0,0,1-12.492,7.09Zm0,0"/>
    </g>
    <path id="Path_1-2" data-name="Path 1" d="M87.4-116.181h.117q-1.17,8.073-2.867,18.486t-3.568,21.82Q79.209-64.467,77.22-52.942T73.476-31.3Q71.721-21.177,70.258-13.1T67.977-.7V-.819a42.79,42.79,0,0,1-2.632,6.026,21.841,21.841,0,0,1-3.861,5.265,17.864,17.864,0,0,1-5.441,3.685,18.327,18.327,0,0,1-7.488,1.4h-2.75a5.231,5.231,0,0,1-1.229-.117h.117a16.305,16.305,0,0,1-3.51-1.814q-1.4-.994-.468-3.1a1.625,1.625,0,0,1,.117-1.345q.351-.644.585-1.112Q42,7.137,42.88,5.557t1.814-3.568q1.989-6.435,3.744-15.035T51.656-31q1.462-9.36,2.749-18.837t2.34-17.784l.819-6.318q.819-5.967,1.579-11.642t1.521-10.705q.76-5.031,1.58-9.185A57.853,57.853,0,0,1,64-112.437q-2.808,1.638-6.142,3.218t-6.728,2.925q-3.393,1.345-6.786,2.34a49.979,49.979,0,0,1-6.435,1.463,22.668,22.668,0,0,1-6.552-.234,16.553,16.553,0,0,1-5.324-1.93,10.626,10.626,0,0,1-3.627-3.451,8.928,8.928,0,0,1-1.345-4.914q0-4.1,3.978-10.062a47.141,47.141,0,0,1,7.605-7.722A102.313,102.313,0,0,1,42-137.65q4.8-3.1,9.243-5.441t7.488-3.744a139.413,139.413,0,0,1,25.155-8.716,96.139,96.139,0,0,1,21.645-2.75q14.742,0,25.448,5.5a50.133,50.133,0,0,1,17.725,15.035,65.636,65.636,0,0,1,10.413,22.289,105.677,105.677,0,0,1,3.393,27.261,109.291,109.291,0,0,1-.644,11.466q-.644,6.084-1.7,12.4t-2.515,12.519q-1.462,6.2-3.1,11.7A162.987,162.987,0,0,1,141.57-12.87a173.677,173.677,0,0,1-18.545,25.74,155.618,155.618,0,0,1-22.932,21.587,104.967,104.967,0,0,1-26.149,14.8A143.659,143.659,0,0,1,57.8,53.118a90.909,90.909,0,0,1-16.146,1.521,71.508,71.508,0,0,1-20.124-2.867,61.025,61.025,0,0,1-17.9-8.482A58.16,58.16,0,0,1-11.291,25.448,48.074,48.074,0,0,1-17.082,1.989,56.8,56.8,0,0,1-16.263-7.2a93.982,93.982,0,0,1,2.106-9.652A52.1,52.1,0,0,1-6.2-30.712,66.793,66.793,0,0,1,5.207-42.062a59.918,59.918,0,0,1,12.87-7.722A31.4,31.4,0,0,1,30.537-52.65a20.667,20.667,0,0,1,6.9,1.111,13.843,13.843,0,0,1,5.5,3.568,17.362,17.362,0,0,1,3.685,6.2A26.732,26.732,0,0,1,47.97-32.76a43.594,43.594,0,0,1-.819,8.775V-24.1q-1.287,2.223-2.691,2.164a3.386,3.386,0,0,1-2.34-.994q.117-1.287.175-2.457t.059-2.223q0-8.541-2.808-12.344a8.638,8.638,0,0,0-7.254-3.8,17.452,17.452,0,0,0-8.132,2.34A37.721,37.721,0,0,0,15.678-35.1a54.376,54.376,0,0,0-7.547,9.243A45.486,45.486,0,0,0,2.808-14.742a101.271,101.271,0,0,0-2.574,11A58.329,58.329,0,0,0-.7,6.2,48.8,48.8,0,0,0,2.282,23.576a35.522,35.522,0,0,0,8.951,13.514,30.522,30.522,0,0,0,12.226,7.547,46.849,46.849,0,0,0,14.684,2.281,56.992,56.992,0,0,0,15.444-2.165,65.243,65.243,0,0,0,14.391-5.909A78.437,78.437,0,0,0,84.649,24.979,139.471,139.471,0,0,0,99.8,5.382a199.9,199.9,0,0,0,12.812-23.166,200.615,200.615,0,0,0,9.77-24.8q1.872-6.318,3.451-12.87t2.749-13.1q1.17-6.552,1.755-12.87t.585-12.051a95.375,95.375,0,0,0-2.164-20.884,51.352,51.352,0,0,0-6.728-16.731,33.072,33.072,0,0,0-11.758-11.115q-7.2-4.036-17.257-4.036a61.931,61.931,0,0,0-14.332,1.93,107.243,107.243,0,0,0-17.024,5.792,116.872,116.872,0,0,0-16.848,8.6,53.008,53.008,0,0,0-10.881,8.482q-4.1,4.68-4.1,7.839a2.7,2.7,0,0,0,1.814,2.574q1.814.819,5.323,0a42.616,42.616,0,0,0,5.09-1.931q2.749-1.229,5.674-2.691t5.733-3.042q2.808-1.58,5.382-3.1l4.8-2.808q2.574-1.4,4.621-2.516A26.171,26.171,0,0,1,71.6-128.7a37.433,37.433,0,0,1,4.68-1.462,16.752,16.752,0,0,1,3.744-.527,7.079,7.079,0,0,1,4.1,1.053,6.7,6.7,0,0,1,2.34,2.984,14.062,14.062,0,0,1,.994,4.563,56.243,56.243,0,0,1,.059,5.791Zm86.346,38.844a18.077,18.077,0,0,0,.351-3.276,9.256,9.256,0,0,1,.234-2.223,2.4,2.4,0,0,1,1.872-1.813,6.306,6.306,0,0,1,3.042.175,20.542,20.542,0,0,1,7.137,3.861,7.228,7.228,0,0,1,2.223,5.5,18.117,18.117,0,0,1-.41,3.627q-.409,1.989-1.111,4.329-1.17,3.744-2.632,9.067t-2.867,11.232q-1.4,5.908-2.516,11.758t-1.7,10.764q-.117,1.17-.175,2.516t-.059,2.281a21.892,21.892,0,0,0,.819,6.61q.819,2.516,2.808,2.633,1.638,0,3.8-1.989a38.814,38.814,0,0,0,4.621-5.265q2.457-3.276,5.031-7.429t5.148-8.658q2.574-4.5,4.914-8.892t4.212-8.015q1.521-2.808,2.633-4.972a37.124,37.124,0,0,1,2.048-3.569,4.49,4.49,0,0,1,1.755-.585q1.521,0,2.925,2.34l-1.287,2.457q-2.34,4.68-5.265,10.589T204.925-32.35q-3.451,6.026-7.2,11.758a104.613,104.613,0,0,1-7.488,10.179,42.131,42.131,0,0,1-7.488,7.137,12.368,12.368,0,0,1-7.137,2.691,13.176,13.176,0,0,1-6.844-1.638,12.622,12.622,0,0,1-4.446-4.5,20.177,20.177,0,0,1-2.4-6.669,45.48,45.48,0,0,1-.7-8.248q0-1.4.059-2.866t.175-2.867A122.193,122.193,0,0,1,165.438-49.9q3.042-11.057,6.669-22.172l1.638-5.382Zm21.177-30.069a19.9,19.9,0,0,1,1.814,4.271,10.7,10.7,0,0,1,.409,3.568,8.018,8.018,0,0,1-3.393,6.143,10.755,10.755,0,0,1-6.318,2.165,6.5,6.5,0,0,1-4.914-2.282q-2.106-2.282-1.872-7.2a13.582,13.582,0,0,1,.819-3.8,15.09,15.09,0,0,1,1.755-3.451,8.86,8.86,0,0,1,2.515-2.457,5.656,5.656,0,0,1,3.1-.936,6.061,6.061,0,0,1,3.1.936A9.663,9.663,0,0,1,194.922-107.406Zm74.412,75.348q-3.159,5.616-7.02,11.758A65.165,65.165,0,0,1,253.48-9.126,44.327,44.327,0,0,1,242.132-.819a31.423,31.423,0,0,1-14.566,3.276A19.7,19.7,0,0,1,217.211-.117a20.333,20.333,0,0,1-6.9-6.845,30.567,30.567,0,0,1-3.8-9.828,56.387,56.387,0,0,1-1.17-11.642v-2.983a21.967,21.967,0,0,1,.234-3.1v.117a81.165,81.165,0,0,1,2.34-13.28,91.166,91.166,0,0,1,4.5-13.1,79.055,79.055,0,0,1,6.377-11.934,55.544,55.544,0,0,1,8.014-9.77,36.3,36.3,0,0,1,9.36-6.61,23.556,23.556,0,0,1,10.354-2.4,18.721,18.721,0,0,1,9.185,2.223,21.64,21.64,0,0,1,6.786,5.792,24.659,24.659,0,0,1,4.1,8.073,27.128,27.128,0,0,1,1.111,9.185,24.755,24.755,0,0,1-4.68,12.051,45.273,45.273,0,0,1-9.594,9.711,59.406,59.406,0,0,1-12.109,7.02,67.237,67.237,0,0,1-12.46,4.095q-.468,1.989-.76,4.1t-.527,4.446a15.555,15.555,0,0,0-.117,1.93v1.931a29.506,29.506,0,0,0,.41,4.973,13.832,13.832,0,0,0,1.463,4.329,8.732,8.732,0,0,0,2.925,3.159,9.9,9.9,0,0,0,4.68,1.463,15.54,15.54,0,0,0,8.424-2.808,39.145,39.145,0,0,0,7.43-6.61,67.79,67.79,0,0,0,6.318-8.424q2.867-4.5,5.09-8.248v.117q2.808-4.914,5.207-9.653t4.387-8.6q.936-1.755,2.106-3.978t2.106-3.861a6.953,6.953,0,0,1,1.755-.585,2.294,2.294,0,0,1,1.7.644,6.012,6.012,0,0,1,1.111,1.579l-1.17,2.574q-2.106,4.329-5.207,10.355T269.334-32.058Zm-9.009-42.12q-1.755-3.393-4.212-3.393a8.039,8.039,0,0,0-4.855,2.106,32.55,32.55,0,0,0-5.265,5.5,83.086,83.086,0,0,0-5.206,7.6q-2.574,4.212-4.622,8.424t-3.627,8.014a43.279,43.279,0,0,0-2.165,6.26,37.211,37.211,0,0,0,9.243-2.574,50.171,50.171,0,0,0,10.12-5.5,39.127,39.127,0,0,0,8.365-7.839,18,18,0,0,0,3.978-9.711A16.128,16.128,0,0,0,260.325-74.178Zm1.989-29.25a10.585,10.585,0,0,1-3.276-2.691q-1.755-1.989-3.568-4.5t-3.627-5.44q-1.813-2.925-3.451-5.616l-1.989-3.393q-1.638,1.521-3.686,3.8t-4.5,4.855q-2.925,3.159-6.025,6.435t-6.025,6.026a57.713,57.713,0,0,1-5.5,4.621,10.221,10.221,0,0,1-4.446,2.106,6.2,6.2,0,0,1-1.579-.234,7.093,7.093,0,0,1-1.7-.7,5.108,5.108,0,0,1-1.4-1.17,2.33,2.33,0,0,1-.585-1.521,1.572,1.572,0,0,1,.41-.878,9.841,9.841,0,0,1,1.111-1.17q.7-.644,1.579-1.4t1.7-1.463a18.926,18.926,0,0,0,1.521-1.463q.585-.644.819-.878l1.17-1.17v.117q1.755-1.872,4.914-5.206t6.669-6.844q3.51-3.51,6.786-6.552a36.9,36.9,0,0,1,5.382-4.329,1.065,1.065,0,0,1,.76-.585q.526-.117,1.346-.234a5.315,5.315,0,0,1,2.867.41,3.827,3.827,0,0,1,2.281,1.93q1.638,1.989,3.8,5.031t4.212,6.2q2.048,3.159,3.627,5.791t2.164,3.568q.117.234.585.936t1.053,1.521q.936,1.287,1.7,2.34t.526,1.638a1.636,1.636,0,0,1-1.053.76,6.524,6.524,0,0,1-1.579.176,6.786,6.786,0,0,1-1.755-.234,3.963,3.963,0,0,1-1.346-.585ZM356.5-56.043q0-.117.058-.117t.059-.117a5.15,5.15,0,0,1,2.515-.877q1.229-.058,2.75,1.7-3.042,6.2-6.9,13.279T346.9-28.548a124.6,124.6,0,0,1-8.6,11.875,38.386,38.386,0,0,1-8.366,7.9q-2.574,12.87-5.792,25.682T317.07,41.36A198.646,198.646,0,0,1,308.529,63a87.936,87.936,0,0,1-10.237,17.082,41.689,41.689,0,0,1-12.051,10.764A22.07,22.07,0,0,1,272.259,93.6a14.578,14.578,0,0,1-10.589-6.435q-3.92-5.616-3.919-14.04a32.328,32.328,0,0,1,1.053-8.073,91.644,91.644,0,0,1,7.956-19.832A123.311,123.311,0,0,1,278.226,27.9,162.65,162.65,0,0,1,292.149,12.46q7.488-7.312,15.444-14.215.936-4.563,1.872-9.009t1.872-8.19l1.872-7.956q-3.276,5.031-7.02,9.769a65.526,65.526,0,0,1-7.9,8.424,40.3,40.3,0,0,1-8.716,5.967,20.475,20.475,0,0,1-9.243,2.281,16.765,16.765,0,0,1-7.663-1.579,13.768,13.768,0,0,1-5.031-4.271,17.226,17.226,0,0,1-2.75-6.2,32.885,32.885,0,0,1-.819-7.488q0-.819.059-1.813t.176-1.931a70.853,70.853,0,0,1,2.983-12.987,107.9,107.9,0,0,1,5.85-14.449A115.884,115.884,0,0,1,281.385-65.4,77.333,77.333,0,0,1,291.564-77.63a49.848,49.848,0,0,1,11.7-8.541,27.6,27.6,0,0,1,12.87-3.217,17.31,17.31,0,0,1,9.185,2.457,21.868,21.868,0,0,1,6.728,6.377,27.106,27.106,0,0,1,3.919,8.775,28.522,28.522,0,0,1,.76,9.77q-.234,1.638-.527,3.159a21.466,21.466,0,0,1-.877,3.159,3.06,3.06,0,0,1-1.4.761,6.273,6.273,0,0,1-1.521.41,3.212,3.212,0,0,1-2.574-1.287,12.745,12.745,0,0,0,.643-2.457q.176-1.17.41-2.457a30.489,30.489,0,0,0-.41-6.143,19.06,19.06,0,0,0-1.872-5.791,12.682,12.682,0,0,0-3.569-4.271,8.611,8.611,0,0,0-5.382-1.7,13.719,13.719,0,0,0-8.307,3.217,43.205,43.205,0,0,0-8.073,8.307,86.742,86.742,0,0,0-7.254,11.407q-3.393,6.318-6.026,12.578a115.787,115.787,0,0,0-4.27,11.758,43.307,43.307,0,0,0-1.872,8.892,17.224,17.224,0,0,0-.117,3.51,13.557,13.557,0,0,0,.643,3.452,5.635,5.635,0,0,0,1.7,2.574,4.908,4.908,0,0,0,3.276.995,10.794,10.794,0,0,0,6.669-2.691,42.114,42.114,0,0,0,6.728-6.9,86.27,86.27,0,0,0,6.376-9.3q3.042-5.09,5.5-9.769.585-1.287,1.17-2.925A16.783,16.783,0,0,0,316.6-46.8a5.674,5.674,0,0,0,.117-1.111v-1.111l-.468-2.691a3.964,3.964,0,0,1-.234-1.228v-.878a2.513,2.513,0,0,1,1.521-2.165,9.744,9.744,0,0,1,3.042-.643,21.89,21.89,0,0,1,6.61.877,12.154,12.154,0,0,1,4.5,2.457,11,11,0,0,1,2.691,3.627,16.331,16.331,0,0,1,1.287,4.5q-.585,6.318-1.287,12.695t-1.638,13.4a51.259,51.259,0,0,0,6.376-7.312q3.217-4.388,6.318-9.418t5.909-10.3Q354.159-51.363,356.5-56.043ZM264.186,72.891a8.789,8.789,0,0,0,1.345,5.031q1.346,1.989,4.5,1.989a10.89,10.89,0,0,0,5.323-2.282,26.822,26.822,0,0,0,4.855-4.973,58.538,58.538,0,0,0,6.552-10.705q3.042-6.26,5.733-13.279t4.973-14.215q2.281-7.2,4.271-13.514L304.2,12.87l.7-3.159.468-1.4a134.06,134.06,0,0,0-15.736,14.625A136.2,136.2,0,0,0,276,40.365q-1.287,2.106-3.276,6.025t-3.92,8.6a87.032,87.032,0,0,0-3.276,9.418A31.436,31.436,0,0,0,264.186,72.891ZM436.527-56.043q0-.117.059-.117t.058-.117a5.15,5.15,0,0,1,2.516-.877q1.229-.058,2.75,1.7-3.042,6.2-6.9,13.279t-8.073,13.631a124.587,124.587,0,0,1-8.6,11.875,38.386,38.386,0,0,1-8.366,7.9q-2.574,12.87-5.792,25.682T397.1,41.36A198.652,198.652,0,0,1,388.557,63a87.938,87.938,0,0,1-10.238,17.082,41.689,41.689,0,0,1-12.051,10.764A22.07,22.07,0,0,1,352.287,93.6,14.578,14.578,0,0,1,341.7,87.165q-3.92-5.616-3.919-14.04a32.328,32.328,0,0,1,1.053-8.073,91.644,91.644,0,0,1,7.956-19.832A123.311,123.311,0,0,1,358.254,27.9,162.65,162.65,0,0,1,372.177,12.46q7.488-7.312,15.444-14.215.936-4.563,1.872-9.009t1.872-8.19l1.872-7.956q-3.276,5.031-7.02,9.769a65.526,65.526,0,0,1-7.9,8.424A40.3,40.3,0,0,1,369.6-2.749,20.475,20.475,0,0,1,360.36-.468,16.765,16.765,0,0,1,352.7-2.047a13.768,13.768,0,0,1-5.031-4.271,17.226,17.226,0,0,1-2.75-6.2,32.885,32.885,0,0,1-.819-7.488q0-.819.059-1.813t.176-1.931a70.853,70.853,0,0,1,2.983-12.987,107.9,107.9,0,0,1,5.85-14.449A115.884,115.884,0,0,1,361.413-65.4,77.333,77.333,0,0,1,371.592-77.63a49.848,49.848,0,0,1,11.7-8.541,27.6,27.6,0,0,1,12.87-3.217,17.31,17.31,0,0,1,9.185,2.457,21.868,21.868,0,0,1,6.727,6.377,27.105,27.105,0,0,1,3.92,8.775,28.522,28.522,0,0,1,.76,9.77q-.234,1.638-.527,3.159a21.463,21.463,0,0,1-.878,3.159,3.06,3.06,0,0,1-1.4.761,6.273,6.273,0,0,1-1.521.41,3.212,3.212,0,0,1-2.574-1.287,12.747,12.747,0,0,0,.644-2.457q.175-1.17.409-2.457a30.491,30.491,0,0,0-.409-6.143,19.061,19.061,0,0,0-1.872-5.791,12.682,12.682,0,0,0-3.569-4.271,8.611,8.611,0,0,0-5.382-1.7,13.719,13.719,0,0,0-8.307,3.217,43.205,43.205,0,0,0-8.073,8.307,86.742,86.742,0,0,0-7.254,11.407q-3.393,6.318-6.026,12.578a115.787,115.787,0,0,0-4.27,11.758,43.307,43.307,0,0,0-1.872,8.892,17.224,17.224,0,0,0-.117,3.51A13.557,13.557,0,0,0,364.4-15.5a5.635,5.635,0,0,0,1.7,2.574,4.908,4.908,0,0,0,3.276.995,10.794,10.794,0,0,0,6.669-2.691,42.114,42.114,0,0,0,6.728-6.9,86.275,86.275,0,0,0,6.376-9.3q3.042-5.09,5.5-9.769.585-1.287,1.17-2.925a16.783,16.783,0,0,0,.819-3.276,5.674,5.674,0,0,0,.117-1.111v-1.111l-.468-2.691a3.964,3.964,0,0,1-.234-1.228v-.878a2.513,2.513,0,0,1,1.521-2.165,9.744,9.744,0,0,1,3.042-.643,21.89,21.89,0,0,1,6.611.877,12.154,12.154,0,0,1,4.5,2.457,11,11,0,0,1,2.691,3.627,16.332,16.332,0,0,1,1.287,4.5q-.585,6.318-1.287,12.695t-1.638,13.4a51.259,51.259,0,0,0,6.376-7.312q3.217-4.388,6.318-9.418t5.909-10.3Q434.187-51.363,436.527-56.043ZM344.214,72.891a8.789,8.789,0,0,0,1.345,5.031q1.346,1.989,4.5,1.989a10.89,10.89,0,0,0,5.323-2.282,26.822,26.822,0,0,0,4.855-4.973,58.538,58.538,0,0,0,6.552-10.705q3.042-6.26,5.733-13.279T377.5,34.457q2.281-7.2,4.271-13.514l2.457-8.073.7-3.159.468-1.4a134.06,134.06,0,0,0-15.736,14.625,136.2,136.2,0,0,0-13.63,17.433q-1.287,2.106-3.276,6.025t-3.92,8.6a87.032,87.032,0,0,0-3.276,9.418A31.436,31.436,0,0,0,344.214,72.891ZM455.949-.819a17.191,17.191,0,0,1-11.115-3.569,26.8,26.8,0,0,1-7.2-9.067,42.761,42.761,0,0,1-3.861-12.168,78.949,78.949,0,0,1-1.111-12.987v-3.451a18.929,18.929,0,0,1,.234-3.1q.468-5.616,1.287-10.413a44.393,44.393,0,0,1,2.106-8.19,14.063,14.063,0,0,1,5.441-4.095,16.483,16.483,0,0,1,6.376-1.287,16.1,16.1,0,0,1,3.8.468,16.8,16.8,0,0,1,3.569,1.287,89.54,89.54,0,0,1,2.047-12.344,40.352,40.352,0,0,1,4.329-11.056,23.624,23.624,0,0,1,7.488-7.956,20.756,20.756,0,0,1,11.641-3.042,18.8,18.8,0,0,1,9.77,2.4,20.009,20.009,0,0,1,6.669,6.493,29.434,29.434,0,0,1,3.861,9.711,56.329,56.329,0,0,1,1.229,12.051,60.444,60.444,0,0,1-.351,6.669v-.117a98.74,98.74,0,0,1-3.861,18.72,102.6,102.6,0,0,1-7.371,18.018,20.878,20.878,0,0,0,8.073-3.451,33.735,33.735,0,0,0,6.435-6.084,54.187,54.187,0,0,0,5.323-7.839q2.4-4.271,4.622-8.6l2.574-4.68q.585-.234,1.112-.468a2.267,2.267,0,0,1,.878-.234,1.873,1.873,0,0,1,1.17.468,3.465,3.465,0,0,1,.936,1.872q-1.989,4.68-5.148,10.706a70.1,70.1,0,0,1-7.488,11.407,47.21,47.21,0,0,1-9.887,9.243,23.336,23.336,0,0,1-12.343,4.212,67.3,67.3,0,0,1-6.493,8.307,42.48,42.48,0,0,1-7.43,6.435,36.222,36.222,0,0,1-8.307,4.212A26.98,26.98,0,0,1,455.949-.819ZM468.468-60.84a95.4,95.4,0,0,0,.585,10.3,42.148,42.148,0,0,0,2.281,10,24.386,24.386,0,0,0,4.68,7.956,13.677,13.677,0,0,0,7.9,4.271,66.847,66.847,0,0,0,4.153-8.014q1.931-4.387,3.452-9.009a84.562,84.562,0,0,0,2.516-9.477,76.022,76.022,0,0,0,1.345-9.419,21.965,21.965,0,0,0,.234-3.1v-2.983a48.9,48.9,0,0,0-.878-9.477,26.447,26.447,0,0,0-2.691-7.722,14.768,14.768,0,0,0-4.68-5.206,11.756,11.756,0,0,0-6.727-1.93,6.7,6.7,0,0,0-4.738,1.93,15.349,15.349,0,0,0-3.452,5.206,36.631,36.631,0,0,0-2.223,7.605q-.819,4.329-1.287,9.009-.234,2.106-.351,4.68T468.468-60.84Zm10.647,39.078a36.328,36.328,0,0,1-10.062-4.622,28.182,28.182,0,0,1-7.02-6.727,31.606,31.606,0,0,1-4.388-8.541,47.407,47.407,0,0,1-2.164-10.062q-.351,1.872-.527,3.861t-.409,3.978q-.351,3.744-.351,7.254a64.646,64.646,0,0,0,.527,8.365,28.075,28.075,0,0,0,1.813,7.137,13.38,13.38,0,0,0,3.393,4.972,7.473,7.473,0,0,0,5.148,1.872,15.01,15.01,0,0,0,7.371-1.872A25.3,25.3,0,0,0,479.115-21.762ZM527.2-105.183a5.655,5.655,0,0,1-.7-2.75,1.926,1.926,0,0,1,1.638-1.93q1.521-.351,1.814.292a6.475,6.475,0,0,0,.995,1.463,6.143,6.143,0,0,0,2.925,1.521,21.4,21.4,0,0,0,4.036.585,29.275,29.275,0,0,0,4.154-.059q1.989-.175,3.276-.292a157.753,157.753,0,0,0,30.829-5.674q15.854-4.5,32.292-10.53t33.17-12.753q16.731-6.728,33.345-12.4a330.608,330.608,0,0,1,32.935-9.419,147.343,147.343,0,0,1,31.883-3.861,48.065,48.065,0,0,1,11.7,1.4,35.416,35.416,0,0,1,10.354,4.387,34.683,34.683,0,0,1,8.482,7.6,40.615,40.615,0,0,1,6.2,10.94,33.533,33.533,0,0,1,.351,11.524,34.905,34.905,0,0,1-3.51,11.174,35.414,35.414,0,0,1-7.078,9.477,28.582,28.582,0,0,1-10.237,6.318,22.936,22.936,0,0,1-4.622,1.17,32.691,32.691,0,0,1-4.738.351,25.412,25.412,0,0,1-10.706-2.223,29.461,29.461,0,0,1-8.482-5.791,30.744,30.744,0,0,1-5.909-8.073,30.175,30.175,0,0,1-2.984-9.068q1.17-2.457,2.516-2.4a3.953,3.953,0,0,1,2.164.643,25.655,25.655,0,0,0,1.989,6.084,32.315,32.315,0,0,0,4.329,7.137,24.452,24.452,0,0,0,6.26,5.616,11.334,11.334,0,0,0,7.781,1.638,16.646,16.646,0,0,0,8.131-4.1,27.3,27.3,0,0,0,5.674-7.312,32.017,32.017,0,0,0,3.159-8.716,36.59,36.59,0,0,0,.819-8.424q-.7-7.722-4.622-11.525a18.537,18.537,0,0,0-10.062-4.855,43.739,43.739,0,0,0-14.04.176,149,149,0,0,0-16.438,3.568q-8.541,2.34-17.2,5.382t-16.38,5.616q-4.68,1.638-8.775,3.042t-8.015,2.808q-3.919,1.4-8.073,2.808t-9.068,2.808q-.351,7.722-.936,14.1t-1.4,12.051q-.819,5.674-1.814,10.881t-2.164,10.472q-2.808,12.051-5.382,24.979t-6.084,26.383Q627.939-11.466,624.02-.41a129.569,129.569,0,0,1-9.477,20.826,97.253,97.253,0,0,1-12.987,17.842,66.286,66.286,0,0,1-17.375,13.455,48.931,48.931,0,0,1-18.31,5.616,55.374,55.374,0,0,1-19.6-1.4,44.954,44.954,0,0,1-16.555-8.248,46.474,46.474,0,0,1-11.466-13.4,49.855,49.855,0,0,1-5.85-17.141,61.689,61.689,0,0,1,.175-19.481,61.475,61.475,0,0,1,4.68-15.737A55.186,55.186,0,0,1,525.8-31.59a45.9,45.9,0,0,1,11.817-9.828,37.637,37.637,0,0,1,14.625-4.8q8.541-.585,14.625,2.983a27.571,27.571,0,0,1,9.77,9.653,39.469,39.469,0,0,1,5.031,13.864,59.167,59.167,0,0,1,.643,15.5q-.117,1.053-.234,2.632a16.622,16.622,0,0,1-.526,3.1,7.834,7.834,0,0,1-1.17,2.574,2.511,2.511,0,0,1-2.165,1.053,2.321,2.321,0,0,1-1.755-.76,2.772,2.772,0,0,1-.527-1.463,7.438,7.438,0,0,1,.117-1.814A10.51,10.51,0,0,0,576.225-.7a62.368,62.368,0,0,0,.175-9.887,49.759,49.759,0,0,0-1.7-10.647,28.25,28.25,0,0,0-4.1-8.892,10.832,10.832,0,0,0-7.02-4.622q-3.978-.936-9.126,1.638a40.352,40.352,0,0,0-10.179,7.546,64.567,64.567,0,0,0-9.3,11.817A61.19,61.19,0,0,0,528.372.7a52.028,52.028,0,0,0-2.164,16.673,48.3,48.3,0,0,0,2.867,15.269,32.094,32.094,0,0,0,7.137,11.524,18.033,18.033,0,0,0,10.647,5.44,35.092,35.092,0,0,0,17.258-3.042A49.787,49.787,0,0,0,578.331,36.5,75.235,75.235,0,0,0,589.8,21.587a152.277,152.277,0,0,0,8.951-17.609q3.919-9.126,6.786-18.135t4.973-16.5q4.68-17.55,7.722-34.281t6.084-33.345q1.17-5.616,1.638-9.536t.585-6.142l-.117-1.4q-9.009,3.042-18.018,6.2t-17.9,5.792a164.283,164.283,0,0,1-17.726,4.212,92.115,92.115,0,0,1-17.491,1.463q-2.808-.117-6.962-.41a69.31,69.31,0,0,1-8.365-1.111,42.737,42.737,0,0,1-7.722-2.223A10.321,10.321,0,0,1,527.2-105.183Zm244.53-35.568A52.278,52.278,0,0,1,784.953-125.6a69.023,69.023,0,0,1,7.254,18.545,103.234,103.234,0,0,1,2.632,20.943,208.025,208.025,0,0,1-.643,22.464q-.234,2.457-.409,4.856t-.526,4.738q-.936,8.19-2.223,17.141t-2.691,17.14l-.936,5.5q-.819,3.978-1.521,8.307T784.6,2.223q-1.287,7.839-3.042,16.029t-3.744,15.21a120.443,120.443,0,0,0,12.519-13.689q6.2-7.839,12.051-16.5t11.232-17.667Q819-23.4,823.68-31.824T832.1-47.444q3.744-7.2,6.318-12.226,4.446-9.243,9.009-19.656t8.307-20.651q3.744-10.237,6.376-19.773a99.653,99.653,0,0,0,3.334-17.141,55.144,55.144,0,0,0,.176-7.547,36.1,36.1,0,0,0-.76-6.142,12.822,12.822,0,0,1-.643-2.048,25.165,25.165,0,0,1-.468-2.574,15.044,15.044,0,0,1-.117-2.632,5.239,5.239,0,0,1,.643-2.34,2.492,2.492,0,0,1,2.574-.819,8.464,8.464,0,0,1,3.1,1.521,20.752,20.752,0,0,1,2.925,2.633,17.732,17.732,0,0,1,1.93,2.4q4.446,12.753,3.042,30.069a112.173,112.173,0,0,1-3.042,17.55q-2.34,9.36-5.792,19.364T861-67.1q-4.563,10.354-9.769,20.533t-10.881,19.89q-5.675,9.711-11.525,18.369-4.914,6.9-10.471,13.923t-11.232,13.4Q801.45,25.389,795.776,31T785.07,40.716q-3.627,2.808-7.488,5.324a79.451,79.451,0,0,1-7.839,4.5A46.753,46.753,0,0,1,761.67,53.7a29.29,29.29,0,0,1-8.073,1.17q-1.638,0-3.276-.059a13.035,13.035,0,0,1-2.574-.292,7.962,7.962,0,0,1-3.276-1.111,1.813,1.813,0,0,1-.936-2.281,3.966,3.966,0,0,1,.526-1.111q.41-.644.76-1.229v.117a19.172,19.172,0,0,0,2.34-2.925,13.667,13.667,0,0,0,1.755-3.744q1.17-3.393,2.75-9.36T755,19.071q1.755-7.839,3.569-17.082t3.451-19.13q1.638-9.886,2.984-20.007t2.164-19.832q.819-9.594,1.053-17.667t0-13.689a108.086,108.086,0,0,0-3.276-18.545,62.085,62.085,0,0,0-7.078-16.673,43,43,0,0,0-11.524-12.46,34.178,34.178,0,0,0-16.614-6.025,33.469,33.469,0,0,0-14.04,5.265A57.482,57.482,0,0,0,702.878-125.6a64.858,64.858,0,0,0-9.711,15.21,52.709,52.709,0,0,0-4.739,17.374,52.424,52.424,0,0,0,1.112,16.263A49.876,49.876,0,0,0,694.8-62.946a29.654,29.654,0,0,0,8.132,9.36,13.818,13.818,0,0,0,9.594,2.925,17.183,17.183,0,0,0,9.828-3.51,40.879,40.879,0,0,0,8.541-8.482,60.916,60.916,0,0,0,6.611-10.94,63.388,63.388,0,0,0,4.036-10.764,9.026,9.026,0,0,0-.059-.994,2.8,2.8,0,0,1,.059-.994,11.924,11.924,0,0,1,.878-3.334q.644-1.462,3.217-1.7a1.881,1.881,0,0,1,2.281,1.112,6.178,6.178,0,0,1,.293,3.1,15.01,15.01,0,0,1-.351,2.34q-.234.936-.468,1.638V-83.3a3.258,3.258,0,0,0-.234.7v.234l.117-.117-.234.468-.117.117a.815.815,0,0,1-.058.351.815.815,0,0,0-.058.351h.117a70.7,70.7,0,0,1-6.493,15.269,64.729,64.729,0,0,1-10.12,13.513,49.589,49.589,0,0,1-13.163,9.653,33.984,33.984,0,0,1-15.5,3.686q-1.989,0-3.744-.117a15.625,15.625,0,0,1-3.042-.468,34.2,34.2,0,0,1-13.1-5.909,35.616,35.616,0,0,1-9.009-9.887,39.728,39.728,0,0,1-4.972-12.753,49.181,49.181,0,0,1-.76-14.625q.117-1.287.585-3.8a48.182,48.182,0,0,1,1.287-5.207,70.872,70.872,0,0,1,8.483-20.065,82.612,82.612,0,0,1,14.274-17.433,85.815,85.815,0,0,1,18.6-13.163,68.618,68.618,0,0,1,21.469-7.137q2.808-.351,5.323-.585t3.685-.234a58.39,58.39,0,0,1,17.492,2.574,40.643,40.643,0,0,1,14.333,7.722Z" transform="translate(841 549)"/>
  </g>
</svg>
